<?xml version="1.0" standalone="no"?><!DOCTYPE svg PUBLIC "-//W3C//DTD SVG 1.1//EN" "http://www.w3.org/Graphics/SVG/1.1/DTD/svg11.dtd"><svg height="120" node-id="1" sillyvg="true" template-height="120" template-width="120" version="1.1" viewBox="0 0 120 120" width="120" xmlns="http://www.w3.org/2000/svg" xmlns:xlink="http://www.w3.org/1999/xlink"><defs node-id="34"><clipPath id="clip-path" node-id="5"><path d="M 0.00 0.00 L 120.00 0.00 L 120.00 120.00 L 0.00 120.00 Z" fill="#000000" fill-rule="nonzero" id="矩形_6" node-id="6" stroke="none" target-height="120" target-width="120" target-x="0" target-y="0"></path></clipPath><clipPath id="clip-path-2" node-id="7"><path d="M 95.70 120.00 L 95.70 120.00 C 95.80 119.20 95.69 118.40 95.39 117.65 C 91.86 108.59 78.35 100.93 58.69 100.93 C 39.04 100.93 24.92 108.59 21.93 117.65 C 21.67 118.40 21.59 119.21 21.70 120.00 L 95.70 120.00 Z" fill="#000000" fill-rule="nonzero" id="路径_205" node-id="8" stroke="none" target-height="19.071" target-width="74.20337" target-x="21.593973" target-y="100.93002"></path></clipPath></defs><g node-id="36"><g clip-path="url(#clip-path)" group-id="1" id="图层_1" node-id="12"><path d="M 22.27 60.89 L 95.25 59.31 C 95.25 59.31 95.09 80.97 91.65 92.44 C 88.21 103.91 95.85 119.91 95.85 119.91 L 21.67 119.91 C 21.67 119.91 25.48 103.99 25.89 94.97 C 26.30 85.96 22.27 60.89 22.27 60.89 Z" fill="#432b1f" fill-rule="nonzero" group-id="1,2,3" id="路径_194" node-id="13" stroke="none" target-height="60.604015" target-width="74.18201" target-x="21.66901" target-y="59.309017"></path><path d="M 95.70 120.00 L 95.70 120.00 C 95.80 119.20 95.69 118.40 95.39 117.65 C 91.86 108.59 78.35 100.93 58.69 100.93 C 39.04 100.93 24.92 108.59 21.93 117.65 C 21.67 118.40 21.59 119.21 21.70 120.00 L 95.70 120.00 Z" fill="#694b74" fill-rule="nonzero" group-id="1,2,3" id="路径_195" node-id="14" stroke="none" target-height="19.071" target-width="74.20337" target-x="21.593973" target-y="100.93002"></path><path d="M 32.30 51.76 L 82.77 51.76 C 88.63 51.76 93.38 56.51 93.38 62.37 L 93.38 62.37 C 93.38 68.23 88.63 72.99 82.77 72.99 L 32.30 72.99 C 26.44 72.99 21.69 68.23 21.69 62.37 L 21.69 62.37 C 21.69 56.51 26.44 51.76 32.30 51.76 Z" fill="#fcbc85" fill-rule="nonzero" group-id="1,2,3,4" id="矩形_39" node-id="15" stroke="none" target-height="21.224003" target-width="71.688" target-x="21.69101" target-y="51.76102"></path><path d="M 49.61 76.34 L 65.98 76.34 L 65.98 100.50 C 65.98 104.54 62.70 107.82 58.66 107.82 L 56.91 107.82 C 52.87 107.81 49.60 104.53 49.61 100.49 Z" fill="#fdcc9b" fill-rule="nonzero" group-id="1,2,3" id="路径_196" node-id="16" stroke="none" target-height="31.477005" target-width="16.375298" target-x="49.599716" target-y="76.34102"></path><path d="M 49.04 91.13 L 65.98 90.84 L 65.98 94.61 C 60.11 95.25 54.18 94.03 49.04 91.13 Z" fill="#fcbc85" fill-rule="nonzero" group-id="1,2,3" id="路径_197" node-id="17" stroke="none" target-height="4.4110794" target-width="16.932003" target-x="49.04401" target-y="90.83902"></path><path d="M 88.42 58.34 C 88.42 76.72 76.35 92.35 57.79 92.35 C 39.23 92.35 27.14 76.75 27.14 58.34 C 27.14 39.92 40.86 25.07 57.79 25.07 C 74.71 25.07 88.42 39.98 88.42 58.34 Z" fill="#fdcc9b" fill-rule="nonzero" group-id="1,2,3" id="路径_198" node-id="18" stroke="none" target-height="67.281" target-width="61.281002" target-x="27.14301" target-y="25.071022"></path><path d="M 42.63 51.69 C 45.76 51.69 50.24 53.01 50.24 52.47 C 50.24 50.35 46.83 48.63 42.63 48.63 C 38.44 48.63 35.03 50.35 35.03 52.47 C 35.03 53.01 39.52 51.69 42.63 51.69 Z" fill="#684b37" fill-rule="nonzero" group-id="1,2,3" id="路径_199" node-id="19" stroke="none" target-height="4.3860016" target-width="15.210003" target-x="35.029007" target-y="48.62802"></path><path d="M 73.12 51.69 C 76.24 51.69 80.72 53.01 80.72 52.47 C 80.72 50.35 77.31 48.63 73.12 48.63 C 68.92 48.63 65.50 50.35 65.50 52.47 C 65.50 53.01 69.99 51.69 73.12 51.69 Z" fill="#684b37" fill-rule="nonzero" group-id="1,2,3" id="路径_200" node-id="20" stroke="none" target-height="4.3860016" target-width="15.221001" target-x="65.50001" target-y="48.62802"></path><path d="M 46.89 60.36 C 46.89 62.78 44.98 64.74 42.63 64.74 C 40.28 64.74 38.38 62.78 38.38 60.36 C 38.38 57.94 40.28 55.98 42.63 55.98 C 44.98 55.98 46.89 57.94 46.89 60.36 Z" fill="#3b2519" fill-rule="nonzero" group-id="1,2,3,5" id="椭圆_69" node-id="21" stroke="none" target-height="8.757999" target-width="8.512001" target-x="38.37801" target-y="55.98202"></path><path d="M 42.63 58.48 C 42.63 59.32 41.87 59.99 40.93 59.99 C 39.98 59.99 39.22 59.32 39.22 58.48 C 39.22 57.64 39.98 56.97 40.93 56.97 C 41.87 56.97 42.63 57.64 42.63 58.48 Z" fill="#ffffff" fill-rule="nonzero" group-id="1,2,3,6" id="椭圆_70" node-id="22" stroke="none" target-height="3.0239983" target-width="3.4140015" target-x="39.22001" target-y="56.96802"></path><path d="M 77.37 60.36 C 77.37 62.78 75.46 64.74 73.11 64.74 C 70.76 64.74 68.86 62.78 68.86 60.36 C 68.86 57.94 70.76 55.98 73.11 55.98 C 75.46 55.98 77.37 57.94 77.37 60.36 Z" fill="#3b2519" fill-rule="nonzero" group-id="1,2,3,7" id="椭圆_71" node-id="23" stroke="none" target-height="8.757999" target-width="8.512001" target-x="68.85601" target-y="55.98202"></path><path d="M 73.11 58.48 C 73.11 59.32 72.35 59.99 71.41 59.99 C 70.46 59.99 69.70 59.32 69.70 58.48 C 69.70 57.64 70.46 56.97 71.41 56.97 C 72.35 56.97 73.11 57.64 73.11 58.48 Z" fill="#ffffff" fill-rule="nonzero" group-id="1,2,3,8" id="椭圆_72" node-id="24" stroke="none" target-height="3.0239983" target-width="3.4140015" target-x="69.699005" target-y="56.96802"></path><path d="M 57.79 74.50 C 56.25 74.50 54.55 73.06 54.55 73.24 C 54.55 74.51 55.99 75.54 57.79 75.54 C 59.58 75.54 61.01 74.51 61.01 73.24 C 61.02 73.07 59.32 74.50 57.79 74.50 Z" fill="#fcbc85" fill-rule="nonzero" group-id="1,2,3" id="路径_201" node-id="25" stroke="none" target-height="2.4800034" target-width="6.4630013" target-x="54.55301" target-y="73.06102"></path><path d="M 57.79 85.48 C 57.00 85.48 56.14 84.62 56.14 84.76 C 56.29 85.56 56.98 86.13 57.79 86.13 C 58.60 86.13 59.29 85.56 59.44 84.76 C 59.44 84.62 58.57 85.48 57.79 85.48 Z" fill="#fcbc85" fill-rule="nonzero" group-id="1,2,3" id="路径_202" node-id="26" stroke="none" target-height="1.5097351" target-width="3.300003" target-x="56.13801" target-y="84.62402"></path><path d="M 57.79 82.52 C 54.78 82.52 51.45 80.53 51.45 80.77 C 51.45 82.53 54.29 83.95 57.79 83.95 C 61.29 83.95 64.12 82.51 64.12 80.77 C 64.12 80.53 60.79 82.52 57.79 82.52 Z" fill="#f7945e" fill-rule="nonzero" group-id="1,2,3" id="路径_203" node-id="27" stroke="none" target-height="3.4280014" target-width="12.668003" target-x="51.44901" target-y="80.526024"></path><path d="M 42.63 72.99 C 42.63 75.28 40.78 77.13 38.49 77.13 C 36.21 77.13 34.35 75.28 34.35 72.99 C 34.35 70.71 36.21 68.85 38.49 68.85 C 40.78 68.85 42.63 70.71 42.63 72.99 Z" fill="#f9aa8d" fill-rule="nonzero" group-id="1,2,3,9" id="椭圆_73" node-id="28" stroke="none" target-height="8.281998" target-width="8.2820015" target-x="34.35201" target-y="68.85102"></path><path d="M 81.40 72.99 C 81.40 75.28 79.54 77.13 77.25 77.13 C 74.97 77.13 73.11 75.28 73.11 72.99 C 73.11 70.71 74.97 68.85 77.25 68.85 C 79.54 68.85 81.40 70.71 81.40 72.99 Z" fill="#f9aa8d" fill-rule="nonzero" group-id="1,2,3,10" id="椭圆_74" node-id="29" stroke="none" target-height="8.281998" target-width="8.281998" target-x="73.11301" target-y="68.85102"></path><g clip-path="url(#clip-path-2)" group-id="1,2,3,11" id="组_11" node-id="30"><path d="M 57.72 89.16 C 51.62 89.16 46.69 93.48 46.69 98.80 C 46.69 104.11 51.62 108.43 57.72 108.43 C 63.81 108.43 68.74 104.11 68.74 98.80 C 68.74 93.48 63.80 89.16 57.72 89.16 Z M 57.72 106.45 C 52.89 106.45 48.98 103.03 48.98 98.81 C 48.98 94.59 52.89 91.18 57.72 91.18 C 62.54 91.18 66.45 94.59 66.45 98.81 C 66.45 103.03 62.57 106.43 57.72 106.43 Z" fill="#563c60" fill-rule="nonzero" group-id="1,2,3,11" id="路径_204" node-id="31" stroke="none" target-height="19.27198" target-width="22.044998" target-x="46.69001" target-y="89.16103"></path></g><path d="M 87.14 14.24 C 87.14 14.24 112.48 17.80 103.92 59.30 C 103.92 59.30 100.92 77.60 91.58 85.47 C 91.58 85.47 96.76 63.78 89.87 59.30 C 81.84 54.02 76.42 45.59 74.95 36.10 C 74.95 36.10 54.62 44.44 43.45 43.20 C 32.28 41.97 23.05 66.90 27.14 85.47 C 27.14 85.47 6.89 67.58 17.28 32.04 C 27.68 -3.50 59.69 0.10 59.69 0.10 C 77.99 0.10 87.14 14.24 87.14 14.24 Z" fill="#51362a" fill-rule="nonzero" group-id="1,2,3" id="路径_206" node-id="32" stroke="none" target-height="88.977" target-width="105.587006" target-x="6.8910093" target-y="-3.5029776"></path></g></g></svg>