<?xml version="1.0" standalone="no"?><!DOCTYPE svg PUBLIC "-//W3C//DTD SVG 1.1//EN" "http://www.w3.org/Graphics/SVG/1.1/DTD/svg11.dtd"><svg height="120" node-id="1" sillyvg="true" template-height="120" template-width="120" version="1.1" viewBox="0 0 120 120" width="120" xmlns="http://www.w3.org/2000/svg" xmlns:xlink="http://www.w3.org/1999/xlink"><defs node-id="31"><clipPath id="clip-path" node-id="5"><path d="M 0.00 0.00 L 120.00 0.00 L 120.00 120.00 L 0.00 120.00 Z" fill="#000000" fill-rule="nonzero" id="矩形_10" node-id="6" stroke="none" target-height="120" target-width="120" target-x="0" target-y="0"></path></clipPath><clipPath id="clip-path-2" node-id="7"><path d="M 100.28 120.00 L 100.28 120.00 C 100.39 119.15 100.28 118.29 99.96 117.50 C 96.21 107.86 81.84 99.71 60.95 99.71 C 40.06 99.71 25.03 107.86 21.86 117.48 C 21.59 118.29 21.51 119.15 21.62 119.99 L 100.28 119.99 Z" fill="#000000" fill-rule="nonzero" id="路径_78" node-id="8" stroke="none" target-height="20.286003" target-width="78.88063" target-x="21.508617" target-y="99.712"></path></clipPath></defs><g node-id="33"><g clip-path="url(#clip-path)" group-id="1" id="图层_1" node-id="12"><path d="M 100.28 120.00 L 100.28 120.00 C 100.39 119.15 100.28 118.29 99.96 117.50 C 96.21 107.86 81.84 99.71 60.95 99.71 C 40.06 99.71 25.03 107.86 21.86 117.48 C 21.59 118.29 21.51 119.15 21.62 119.99 L 100.28 119.99 Z" fill="#2177f4" fill-rule="nonzero" group-id="1,2,3" id="路径_68" node-id="13" stroke="none" target-height="20.286003" target-width="78.88063" target-x="21.508617" target-y="99.712"></path><path d="M 51.24 73.57 L 68.67 73.57 L 68.67 99.25 C 68.67 103.55 65.19 107.03 60.90 107.03 L 59.01 107.03 C 54.71 107.03 51.23 103.55 51.23 99.25 L 51.23 73.57 Z" fill="#fdcc9b" fill-rule="nonzero" group-id="1,2,3" id="路径_69" node-id="14" stroke="none" target-height="33.459" target-width="17.447002" target-x="51.22701" target-y="73.57"></path><path d="M 50.65 89.31 L 68.65 89.00 L 68.65 93.01 C 62.41 93.69 56.11 92.39 50.65 89.30 Z" fill="#fcbc85" fill-rule="nonzero" group-id="1,2,3" id="路径_70" node-id="15" stroke="none" target-height="4.6903" target-width="18.008003" target-x="50.64501" target-y="88.998"></path><path d="M 32.83 48.03 L 86.48 48.03 C 92.71 48.03 97.76 53.08 97.76 59.31 L 97.76 59.31 C 97.76 65.54 92.71 70.59 86.48 70.59 L 32.83 70.59 C 26.60 70.59 21.55 65.54 21.55 59.31 L 21.55 59.31 C 21.55 53.08 26.60 48.03 32.83 48.03 Z" fill="#fcbc85" fill-rule="nonzero" group-id="1,2,3,4" id="矩形_33" node-id="16" stroke="none" target-height="22.563995" target-width="76.214" target-x="21.55001" target-y="48.028"></path><path d="M 92.52 54.48 C 92.52 74.03 88.40 90.64 59.94 90.64 C 31.48 90.64 27.37 74.03 27.37 54.48 C 27.37 34.92 41.96 19.07 59.94 19.07 C 77.93 19.07 92.52 34.93 92.52 54.48 Z" fill="#fdcc9b" fill-rule="nonzero" group-id="1,2,3" id="路径_71" node-id="17" stroke="none" target-height="71.562" target-width="65.15" target-x="27.36901" target-y="19.075"></path><path d="M 43.77 46.85 C 45.88 46.85 48.89 48.38 48.89 47.73 C 48.89 45.34 46.59 43.41 43.77 43.41 C 40.96 43.41 38.67 45.34 38.67 47.73 C 38.66 48.34 41.67 46.85 43.77 46.85 Z" fill="#401900" fill-rule="nonzero" group-id="1,2,3" id="路径_72" node-id="18" stroke="none" target-height="4.9679985" target-width="10.226997" target-x="38.66201" target-y="43.412003"></path><path d="M 47.97 56.47 C 47.97 58.71 46.12 60.52 43.83 60.52 C 41.54 60.52 39.69 58.71 39.69 56.47 C 39.69 54.24 41.54 52.42 43.83 52.42 C 46.12 52.42 47.97 54.24 47.97 56.47 Z" fill="#3b2519" fill-rule="nonzero" group-id="1,2,3,5" id="椭圆_26" node-id="19" stroke="none" target-height="8.100002" target-width="8.284" target-x="39.68801" target-y="52.423"></path><path d="M 43.84 54.73 C 43.84 55.51 43.09 56.14 42.18 56.14 C 41.26 56.14 40.52 55.51 40.52 54.73 C 40.52 53.96 41.26 53.33 42.18 53.33 C 43.09 53.33 43.84 53.96 43.84 54.73 Z" fill="#ffffff" fill-rule="nonzero" group-id="1,2,3,6" id="椭圆_27" node-id="20" stroke="none" target-height="2.802002" target-width="3.3219986" target-x="40.51501" target-y="53.334"></path><path d="M 75.57 46.85 C 77.67 46.85 80.68 48.38 80.68 47.73 C 80.68 45.34 78.38 43.41 75.57 43.41 C 72.75 43.41 70.45 45.34 70.45 47.73 C 70.45 48.34 73.45 46.85 75.57 46.85 Z" fill="#401900" fill-rule="nonzero" group-id="1,2,3" id="路径_73" node-id="21" stroke="none" target-height="4.9679985" target-width="10.2369995" target-x="70.44501" target-y="43.412003"></path><path d="M 79.76 56.47 C 79.76 58.71 77.91 60.52 75.62 60.52 C 73.33 60.52 71.48 58.71 71.48 56.47 C 71.48 54.24 73.33 52.42 75.62 52.42 C 77.91 52.42 79.76 54.24 79.76 56.47 Z" fill="#3b2519" fill-rule="nonzero" group-id="1,2,3,7" id="椭圆_28" node-id="22" stroke="none" target-height="8.100002" target-width="8.284004" target-x="71.47901" target-y="52.423"></path><path d="M 75.62 54.73 C 75.62 55.51 74.88 56.14 73.96 56.14 C 73.04 56.14 72.30 55.51 72.30 54.73 C 72.30 53.96 73.04 53.33 73.96 53.33 C 74.88 53.33 75.62 53.96 75.62 54.73 Z" fill="#ffffff" fill-rule="nonzero" group-id="1,2,3,8" id="椭圆_29" node-id="23" stroke="none" target-height="2.802002" target-width="3.3219986" target-x="72.29801" target-y="53.334"></path><path d="M 59.65 70.25 C 57.35 70.25 54.84 68.58 54.84 68.88 C 54.84 71.03 56.99 72.01 59.65 72.01 C 62.31 72.01 64.46 71.03 64.46 68.88 C 64.46 68.58 61.93 70.25 59.65 70.25 Z" fill="#fcbc85" fill-rule="nonzero" group-id="1,2,3" id="路径_74" node-id="24" stroke="none" target-height="3.4300003" target-width="9.616005" target-x="54.84101" target-y="68.578"></path><path d="M 59.65 82.43 C 58.12 82.30 56.60 82.02 55.12 81.58 C 55.12 82.44 57.15 83.11 59.65 83.11 C 62.15 83.11 64.17 82.42 64.17 81.58 C 62.70 82.01 61.18 82.30 59.65 82.43 Z" fill="#fcbc85" fill-rule="nonzero" group-id="1,2,3" id="路径_75" node-id="25" stroke="none" target-height="1.5309982" target-width="9.049999" target-x="55.124012" target-y="81.579"></path><path d="M 59.65 79.05 C 55.10 79.05 50.07 77.08 50.07 77.32 C 50.07 79.07 54.36 80.48 59.65 80.48 C 64.94 80.48 69.23 79.07 69.23 77.32 C 69.23 77.08 64.20 79.05 59.65 79.05 Z" fill="#f7945e" fill-rule="nonzero" group-id="1,2,3" id="路径_76" node-id="26" stroke="none" target-height="3.399994" target-width="19.157001" target-x="50.07101" target-y="77.077"></path><g clip-path="url(#clip-path-2)" group-id="1,2,3,9" id="组_3" node-id="27"><path d="M 59.86 87.21 C 53.39 87.21 48.15 91.81 48.15 97.46 C 48.15 103.11 53.39 107.70 59.86 107.70 C 66.33 107.70 71.59 103.11 71.59 97.46 C 71.59 91.81 66.33 87.21 59.86 87.21 Z M 59.86 105.59 C 54.73 105.59 50.58 101.95 50.58 97.47 C 50.58 92.98 54.73 89.35 59.86 89.35 C 64.99 89.35 69.15 92.99 69.15 97.47 C 69.15 101.95 64.99 105.58 59.86 105.58 Z" fill="#25d8ef" fill-rule="nonzero" group-id="1,2,3,9" id="路径_77" node-id="28" stroke="none" target-height="20.489998" target-width="23.436993" target-x="48.148014" target-y="87.214005"></path></g><path d="M 87.87 11.66 C 87.87 11.66 74.91 -4.81 48.00 1.40 C 21.10 7.61 19.00 23.82 19.81 39.58 C 20.62 55.35 25.08 64.60 27.64 63.46 C 30.19 62.31 28.10 51.90 28.36 49.50 C 28.63 47.10 29.54 36.24 45.92 37.86 C 56.19 38.73 66.51 37.25 76.12 33.53 C 76.12 33.53 81.70 40.58 85.34 41.91 C 92.64 44.60 89.48 62.54 92.35 62.54 C 95.21 62.54 110.02 21.12 87.87 11.66 Z" fill="#d96e27" fill-rule="evenodd" group-id="1,2,3" id="路径_79" node-id="29" stroke="none" target-height="69.408" target-width="91.022" target-x="19.000011" target-y="-4.809999"></path></g></g></svg>